<?xml version="1.0" encoding="utf-8"?>
<!-- Generator: Adobe Illustrator 21.1.0, SVG Export Plug-In . SVG Version: 6.00 Build 0)  -->
<svg version="1.1" id="Layer_1" xmlns="http://www.w3.org/2000/svg" xmlns:xlink="http://www.w3.org/1999/xlink" x="0px" y="0px"
	 viewBox="0 0 50 50" style="enable-background:new 0 0 50 50;" xml:space="preserve">
<style type="text/css">
	.st0{fill:#6B9C33;}
	.st1{fill:#50663C;}
	.st2{fill:#87C846;}
</style>
<g transform="translate(44.161 69.24)">
	<path class="st0" d="M-20.4-40.1l2.9,7.8h5.8l-2.9-7.8H-20.4z"/>
</g>
<g transform="translate(0.001 39.219)">
	<path class="st1" d="M29.2-24.6h-5.9l-5,13.7c-0.7,1.5-2.1,2.6-3.6,3c-3.1,0.9-6.4-0.9-7.4-4c0,0,0-0.1,0-0.1
		c-1-3.1,0.7-6.5,3.9-7.5c0,0,0,0,0.1,0c2-0.6,4.1-0.1,5.6,1.3l2-5.3c-2.8-1.7-6.1-2.1-9.2-1.2C3.6-22.9,0.2-16.5,2-10.5
		c0,0,0,0,0,0c1.7,5.7,7.4,9.1,13.1,8l-0.1,0.2h5.8l2.6-6.9c0.2-0.4,0.3-0.8,0.4-1.2l2.4-6.5l5.4,14.6l0.5-14.6L29.2-24.6z"/>
</g>
<g transform="translate(50.028 40.345)">
	<path class="st2" d="M-6.7-3.4h5.8l-8.3-22.4H-15l-8.3,22.4h5.8l1.2-3.1h8.4L-6.7-3.4z M-14.6-11.2l2.5-6.8l2.5,6.8H-14.6z"/>
</g>
</svg>
