<?xml version="1.0" encoding="utf-8"?>
<!-- Generator: Adobe Illustrator 21.1.0, SVG Export Plug-In . SVG Version: 6.00 Build 0)  -->
<svg version="1.1" id="Layer_1" xmlns="http://www.w3.org/2000/svg" xmlns:xlink="http://www.w3.org/1999/xlink" x="0px" y="0px"
	 viewBox="0 0 150 55" style="enable-background:new 0 0 150 55;" xml:space="preserve">
<g>
	<path d="M92.1,54.4c0-0.1,0-0.3,0-0.4c0-17.2,0-34.4,0-51.6c0-0.1,0-0.3,0-0.4c3.4,0,6.8,0,10.3,0c2.7,10.4,5.3,20.9,8,31.3
		c0,0,0,0,0.1,0c0-0.1,0-0.1,0.1-0.2c0-0.1,0-0.2,0-0.3c0-10.1,0-20.3,0-30.4c0-0.1,0-0.3,0-0.4c0.2-0.1,6.7-0.1,7.3,0
		c0,0.1,0,0.2,0,0.2c0,0.1,0,0.2,0,0.3c0,17.1,0,34.2,0,51.4c0,0.2,0,0.3,0,0.5c-2.8,0-5.7,0-8.5,0c0-0.1,0-0.2-0.1-0.3
		c-0.3-1.3-0.7-2.6-1-3.9c-0.5-1.9-1-3.7-1.4-5.6c-0.7-2.9-1.5-5.8-2.2-8.7c-0.5-1.9-1-3.7-1.4-5.6c-0.7-2.9-1.5-5.8-2.2-8.7
		c-0.4-1.7-0.9-3.5-1.3-5.2c0-0.1-0.1-0.2-0.1-0.2c0,0-0.1,0-0.1,0c0,0.1,0,0.3,0,0.4c0,12.4,0,24.9,0,37.3c0,0.2,0,0.3,0,0.5
		C96.9,54.4,94.5,54.4,92.1,54.4z"/>
	<path d="M61.2,54.4c0-0.1,0-0.3,0-0.4c0-17.2,0-34.4,0-51.6c0-0.1,0-0.3,0-0.4c0.2-0.1,7.6-0.1,8,0c0,7.1,0,14.2,0,21.3
		c2.9,0,5.7,0,8.6,0c0-7.1,0-14.2,0-21.3c2.7,0,5.3,0,8,0c0,0.1,0,0.3,0,0.4c0,3.5,0,7,0,10.6c0,13.7,0,27.3,0,41c0,0.2,0,0.3,0,0.5
		c-2.7,0-5.3,0-8,0c0-0.1,0-0.3,0-0.4c0-7.6,0-15.1,0-22.7c0-0.1,0-0.3,0-0.4c-0.5-0.1-8.3,0-8.6,0c0,0.1,0,0.3,0,0.4
		c0,7.6,0,15.1,0,22.7c0,0.1,0,0.3,0,0.4C66.6,54.4,63.9,54.4,61.2,54.4z"/>
	<path d="M133.8,54.4c-0.3,0-0.6-0.1-0.9-0.1c-1.8-0.2-3.6-0.7-5.1-1.7c-1.2-0.8-2.2-1.8-2.9-2.9c-1-1.6-1.5-3.3-1.8-5.1
		c-0.1-0.8-0.2-1.6-0.2-2.4c0-0.9,0-1.8,0-2.8c0-8.5,0-17,0-25.4c0-2,0.2-3.9,0.9-5.7c0.5-1.5,1.3-2.9,2.4-4c1.4-1.4,3.1-2.3,5-2.8
		c1-0.2,1.9-0.4,2.9-0.4c0.1,0,0.1,0,0.2,0c0.6,0,1.3,0,1.9,0c0,0,0.1,0,0.1,0c0.3,0,0.6,0,0.9,0.1c1.2,0.1,2.3,0.4,3.4,0.8
		c2,0.8,3.6,2,4.7,3.8c1.2,1.9,1.8,4,2,6.2c0,0.2,0,0.3,0.1,0.5c0,2.1,0,4.1,0,6.2c0,0-0.1,0-0.1,0c-2.5,0-4.9,0-7.4,0
		c-0.1,0-0.1,0-0.2,0c0-0.1,0-0.2,0-0.2c0-1.8,0-3.5,0-5.3c0-0.8-0.2-1.6-0.5-2.3c-0.4-1-1.1-1.7-2.2-2c-0.9-0.3-1.9-0.3-2.8-0.1
		c-1.2,0.2-2,0.9-2.5,2c-0.4,0.8-0.5,1.7-0.5,2.6c0,9.7,0,19.5,0,29.2c0,0.8,0.1,1.7,0.5,2.4c0.5,1,1.2,1.7,2.4,2
		c0.8,0.2,1.6,0.2,2.3,0.1c0.6-0.1,1.1-0.3,1.6-0.6c0.8-0.5,1.2-1.2,1.5-2.1c0.3-0.8,0.3-1.6,0.3-2.5c0-3.2,0-6.4,0-9.7
		c0-0.1,0-0.2,0-0.3c-0.5,0-0.9,0-1.4,0c-0.4,0-0.9,0-1.3,0c-0.5,0-0.9,0-1.4,0c-0.1-0.8,0-7.2,0-7.4c0.1,0,0.2,0,0.4,0
		c3.7,0,7.5,0,11.2,0c0.1,0,0.2,0,0.3,0c0,6.2,0,12.5,0,18.7c0,0.1,0,0.2,0,0.3c0,0.2,0,0.4,0,0.6c-0.2,1.3-0.4,2.5-0.9,3.7
		c-0.5,1.2-1.2,2.4-2.1,3.4c-1.3,1.4-2.8,2.3-4.6,2.8c-1,0.3-2.1,0.5-3.1,0.6c0,0-0.1,0-0.1,0.1C135.7,54.4,134.7,54.4,133.8,54.4z"
		/>
	<path d="M1.6,54.3C1.7,54,1.9,53.7,2,53.4c1-2.8,2-5.6,3-8.5c1-2.8,2-5.6,3-8.4c1-2.9,2.1-5.8,3.1-8.7c0.1-0.2,0-0.3,0-0.4
		c-0.4-1.1-0.8-2.2-1.2-3.4c-0.6-1.7-1.2-3.3-1.8-5c-0.7-2-1.4-4-2.1-6c-0.6-1.7-1.2-3.4-1.8-5c-0.7-1.9-1.3-3.7-2-5.6
		c0-0.1-0.1-0.2-0.1-0.3C5,2,7.9,2,10.8,2c1.8,5.6,3.7,11.3,5.5,16.9c0.2,0,0.2-0.2,0.2-0.3c0.4-1,0.7-2.1,1.1-3.1
		c0.9-2.5,1.7-5.1,2.6-7.6C20.8,6,21.4,4.2,22,2.3c0-0.1,0.1-0.2,0.1-0.3c2.6,0,5.2,0,7.8,0c0,0.1,0,0.2-0.1,0.2
		c-0.9,2.5-1.8,5.1-2.7,7.6c-0.8,2.4-1.7,4.8-2.5,7.2c-0.9,2.5-1.8,5-2.7,7.5c-0.3,0.9-0.7,1.9-1,2.8c-0.1,0.1-0.1,0.3,0,0.4
		c0.8,2.3,1.6,4.6,2.4,6.9c0.9,2.6,1.9,5.2,2.8,7.9c0.9,2.4,1.7,4.9,2.6,7.3c0.5,1.5,1,2.9,1.6,4.4c0,0,0,0.1,0.1,0.1
		c-2.9,0-5.8,0-8.7,0c-0.6-1.7-1.1-3.4-1.7-5.1c-0.6-1.9-1.2-3.8-1.9-5.7c-0.8-2.3-1.5-4.7-2.3-7c0-0.1-0.1-0.3-0.2-0.4
		c-0.1,0.1-0.2,0.2-0.2,0.3c-0.5,1.6-1.1,3.1-1.6,4.7c-0.8,2.5-1.7,5-2.5,7.6c-0.4,1.1-0.8,2.2-1.1,3.4c-0.3,0.8-0.5,1.6-0.8,2.4
		c-2.6,0-5.1,0-7.7,0C1.7,54.4,1.6,54.5,1.6,54.3z"/>
	<path d="M42.9,54.4c-0.3,0-0.6-0.1-0.9-0.1c-2-0.3-3.8-0.9-5.4-2.1c-1.6-1.2-2.6-2.8-3.3-4.7c-0.4-1.2-0.7-2.5-0.8-3.8
		c-0.1-0.7-0.1-1.5-0.1-2.2c0-9.2,0-18.5,0-27.7c0-1.8,0.2-3.6,0.8-5.4c0.7-2.2,2-4.1,3.9-5.4c1.2-0.8,2.5-1.3,3.8-1.6
		C41.7,1.1,42.5,1,43.3,1c0.1,0,0.1,0,0.2,0c0.6,0,1.2,0,1.8,0c0.1,0,0.1,0,0.2,0c1.2,0.1,2.4,0.3,3.6,0.7c1.4,0.5,2.7,1.2,3.8,2.3
		c1,1,1.7,2.1,2.2,3.3c0.5,1.3,0.8,2.6,1,4c0.1,0.9,0.1,1.8,0.1,2.7c0,1.6,0,3.3,0,4.9c0,0.1,0,0.2,0,0.4c-0.2,0.1-7.2,0.1-7.6,0
		c0-0.1,0-0.2,0-0.4c0-2,0-4,0-6c0-0.8-0.1-1.6-0.5-2.3c-0.5-1-1.2-1.7-2.3-1.9c-0.9-0.2-1.7-0.2-2.6,0.1c-1.2,0.4-2,1.3-2.3,2.5
		c-0.2,0.7-0.3,1.4-0.3,2.1c0,9.7,0,19.4,0,29.1c0,0.9,0.1,1.7,0.4,2.6c0.5,1.2,1.4,1.8,2.6,2.1c0.7,0.1,1.3,0.1,2,0
		c1.3-0.3,2.1-1,2.5-2.2c0.2-0.7,0.3-1.3,0.3-2c0-2.6,0-5.3,0-7.9c0-0.1,0-0.3,0-0.4c2.6,0,5.1,0,7.6,0c0,0.1,0,0.2,0,0.3
		c0,2.6,0,5.2,0,7.8c0,1.9-0.3,3.8-1.1,5.6c-0.9,2.2-2.4,4-4.5,5.1c-1.1,0.6-2.2,0.9-3.5,1.1c-0.4,0.1-0.9,0.1-1.3,0.2"/>
</g>
</svg>
